<mxfile host="app.diagrams.net" modified="2021-08-05T02:07:08.884Z" agent="5.0 (Macintosh; Intel Mac OS X 10_15_7) AppleWebKit/537.36 (KHTML, like Gecko) Chrome/92.0.4515.107 Safari/537.36 Edg/92.0.902.62" etag="LDVEiHSduziP-aYglEEK" version="14.9.3" type="github">
  <diagram id="PrGpzekshYqfDAG1nMo7" name="Page-1">
    <mxGraphModel dx="1026" dy="1129" grid="1" gridSize="10" guides="1" tooltips="1" connect="1" arrows="1" fold="1" page="1" pageScale="1" pageWidth="827" pageHeight="1169" background="#114B5F" math="0" shadow="0">
      <root>
        <mxCell id="0" />
        <mxCell id="1" parent="0" />
        <mxCell id="Kz_EInqMz3-rkb2AI1Af-4" style="edgeStyle=orthogonalEdgeStyle;orthogonalLoop=1;jettySize=auto;html=1;exitX=1;exitY=0.25;exitDx=0;exitDy=0;entryX=0;entryY=0.25;entryDx=0;entryDy=0;fontColor=#E4FDE1;strokeColor=#028090;fillColor=#F45B69;labelBackgroundColor=#114B5F;sketch=1;curved=1;" parent="1" source="Kz_EInqMz3-rkb2AI1Af-2" target="Kz_EInqMz3-rkb2AI1Af-5" edge="1">
          <mxGeometry relative="1" as="geometry">
            <mxPoint x="288.02" y="139" as="targetPoint" />
          </mxGeometry>
        </mxCell>
        <mxCell id="Kz_EInqMz3-rkb2AI1Af-2" value="&lt;div style=&quot;box-sizing: border-box ; width: 100% ; background: #e4e4e4 ; padding: 2px&quot;&gt;&lt;font color=&quot;#000000&quot;&gt;DirectSession::Create&lt;/font&gt;&lt;/div&gt;&lt;font style=&quot;font-size: 18px&quot;&gt;1. 参数是图的pb结构&lt;br&gt;2. 校验是否有Node&lt;br&gt;3.创建&lt;/font&gt;" style="verticalAlign=top;align=left;overflow=fill;html=1;fontColor=#E4FDE1;strokeColor=#028090;fillColor=#F45B69;sketch=1;rounded=1;" parent="1" vertex="1">
          <mxGeometry x="60" y="130" width="180" height="90" as="geometry" />
        </mxCell>
        <mxCell id="Kz_EInqMz3-rkb2AI1Af-15" style="edgeStyle=orthogonalEdgeStyle;orthogonalLoop=1;jettySize=auto;html=1;exitX=1;exitY=0.25;exitDx=0;exitDy=0;entryX=0;entryY=0.25;entryDx=0;entryDy=0;fontColor=#E4FDE1;strokeColor=#028090;fillColor=#F45B69;labelBackgroundColor=#114B5F;sketch=1;curved=1;" parent="1" source="Kz_EInqMz3-rkb2AI1Af-5" target="Kz_EInqMz3-rkb2AI1Af-14" edge="1">
          <mxGeometry relative="1" as="geometry" />
        </mxCell>
        <mxCell id="Kz_EInqMz3-rkb2AI1Af-5" value="&lt;div style=&quot;box-sizing: border-box ; width: 100% ; background: #e4e4e4 ; padding: 2px&quot;&gt;&lt;font color=&quot;#000000&quot;&gt;DirectSession::ExtendLocked&lt;/font&gt;&lt;br&gt;&lt;/div&gt;&lt;font style=&quot;font-size: 18px&quot;&gt;1. 初始化flib_def_，使用它加载加载图的&lt;br&gt;func和grad&lt;br&gt;2.&lt;/font&gt;" style="verticalAlign=top;align=left;overflow=fill;html=1;fontColor=#E4FDE1;strokeColor=#028090;fillColor=#F45B69;sketch=1;rounded=1;" parent="1" vertex="1">
          <mxGeometry x="280" y="130" width="330" height="90" as="geometry" />
        </mxCell>
        <mxCell id="Kz_EInqMz3-rkb2AI1Af-6" value="&lt;b&gt;&lt;font style=&quot;font-size: 18px&quot;&gt;FunctionLibraryDefinition&lt;br&gt;&lt;div style=&quot;text-align: left&quot;&gt;&lt;b style=&quot;font-size: 12px&quot;&gt;&lt;font style=&quot;font-size: 18px&quot;&gt;变量：&lt;/font&gt;&lt;/b&gt;&lt;/div&gt;&lt;/font&gt;&lt;/b&gt;&lt;b&gt;&lt;font style=&quot;font-size: 18px&quot;&gt;&lt;div style=&quot;text-align: left&quot;&gt;&lt;ul&gt;&lt;li&gt;&lt;b style=&quot;font-size: 12px&quot;&gt;&lt;font style=&quot;font-size: 18px&quot;&gt;function_defs_:graph中的FunctionDef&lt;/font&gt;&lt;/b&gt;&lt;/li&gt;&lt;li&gt;&lt;b style=&quot;font-size: 18px&quot;&gt;func_grad_:graph中的GradientDef&lt;/b&gt;&lt;/li&gt;&lt;/ul&gt;&lt;/div&gt;&lt;/font&gt;&lt;/b&gt;" style="whiteSpace=wrap;html=1;fontColor=#E4FDE1;strokeColor=#028090;fillColor=#F45B69;sketch=1;rounded=1;" parent="1" vertex="1">
          <mxGeometry x="45" y="855" width="385" height="145" as="geometry" />
        </mxCell>
        <mxCell id="Kz_EInqMz3-rkb2AI1Af-8" style="edgeStyle=orthogonalEdgeStyle;orthogonalLoop=1;jettySize=auto;html=1;exitX=0.5;exitY=1;exitDx=0;exitDy=0;fontColor=#E4FDE1;strokeColor=#028090;fillColor=#F45B69;labelBackgroundColor=#114B5F;sketch=1;curved=1;" parent="1" source="Kz_EInqMz3-rkb2AI1Af-7" target="Kz_EInqMz3-rkb2AI1Af-6" edge="1">
          <mxGeometry relative="1" as="geometry" />
        </mxCell>
        <mxCell id="Kz_EInqMz3-rkb2AI1Af-9" value="&lt;font color=&quot;#ffffff&quot;&gt;派生&lt;/font&gt;" style="edgeLabel;html=1;align=center;verticalAlign=middle;resizable=0;points=[];fontColor=#E4FDE1;labelBackgroundColor=#114B5F;sketch=1;rounded=1;" parent="Kz_EInqMz3-rkb2AI1Af-8" vertex="1" connectable="0">
          <mxGeometry x="-0.1143" y="-1" relative="1" as="geometry">
            <mxPoint as="offset" />
          </mxGeometry>
        </mxCell>
        <mxCell id="Kz_EInqMz3-rkb2AI1Af-7" value="&lt;font color=&quot;#ffffff&quot; size=&quot;1&quot;&gt;&lt;b style=&quot;font-size: 16px&quot;&gt;OpRegistryInterface&lt;/b&gt;&lt;/font&gt;" style="whiteSpace=wrap;html=1;fontColor=#E4FDE1;strokeColor=#028090;fillColor=#F45B69;sketch=1;rounded=1;" parent="1" vertex="1">
          <mxGeometry x="440" y="730" width="180" height="50" as="geometry" />
        </mxCell>
        <mxCell id="21N51K9pXP3Gy3JPKtt--2" style="edgeStyle=orthogonalEdgeStyle;curved=1;rounded=1;sketch=1;orthogonalLoop=1;jettySize=auto;html=1;exitX=0.5;exitY=1;exitDx=0;exitDy=0;entryX=0.5;entryY=0;entryDx=0;entryDy=0;fontColor=#E4FDE1;strokeColor=#028090;fillColor=#F45B69;" edge="1" parent="1" source="Kz_EInqMz3-rkb2AI1Af-14" target="21N51K9pXP3Gy3JPKtt--1">
          <mxGeometry relative="1" as="geometry" />
        </mxCell>
        <mxCell id="Kz_EInqMz3-rkb2AI1Af-14" value="&lt;div style=&quot;box-sizing: border-box ; width: 100% ; background: #e4e4e4 ; padding: 2px&quot;&gt;&lt;font color=&quot;#000000&quot;&gt;GraphExecutionState::MakeForBaseGraph&lt;/font&gt;&lt;br&gt;&lt;/div&gt;1.&amp;nbsp;&lt;br&gt;2." style="verticalAlign=top;align=left;overflow=fill;html=1;fontColor=#E4FDE1;strokeColor=#028090;fillColor=#F45B69;sketch=1;rounded=1;" parent="1" vertex="1">
          <mxGeometry x="660" y="130" width="290" height="90" as="geometry" />
        </mxCell>
        <mxCell id="21N51K9pXP3Gy3JPKtt--1" value="AddDefaultAttrsToGraphDef" style="rounded=0;whiteSpace=wrap;html=1;sketch=1;fontColor=#E4FDE1;strokeColor=#028090;fillColor=#F45B69;" vertex="1" parent="1">
          <mxGeometry x="560" y="300" width="200" height="60" as="geometry" />
        </mxCell>
      </root>
    </mxGraphModel>
  </diagram>
</mxfile>
